REM DIRINDEX 1\2,1\3,1\4,1\5
REM DIRNAME folder01,folder02,folder03,folder04,folder05
TITLE ""
FILE "1Q_t_0652-0661.mp3" MP3
  TRACK 01 AUDIO
    TITLE "3:cjc004_2858"
    INDEX 01 00:00:00
  TRACK 02 AUDIO
    TITLE "0:"
    INDEX 01 00:00:66
  TRACK 03 AUDIO
    TITLE "4:cjc004_2859"
    INDEX 01 00:01:22
  TRACK 04 AUDIO
    TITLE "0:"
    INDEX 01 00:02:43
  TRACK 05 AUDIO
    TITLE "5:cjc004_2860"
    INDEX 01 00:02:69
  TRACK 06 AUDIO
    TITLE "0:"
    INDEX 01 00:07:70
  TRACK 07 AUDIO
    TITLE "3:cjc004_2861"
    INDEX 01 00:08:44
  TRACK 08 AUDIO
    TITLE "0:"
    INDEX 01 00:09:51
  TRACK 09 AUDIO
    TITLE "4:cjc004_2862"
    INDEX 01 00:10:00
  TRACK 10 AUDIO
    TITLE "0:"
    INDEX 01 00:11:15
  TRACK 11 AUDIO
    TITLE "5:cjc004_2863"
    INDEX 01 00:11:35
  TRACK 12 AUDIO
    TITLE "0:"
    INDEX 01 00:17:61
  TRACK 13 AUDIO
    TITLE "3:cjc004_2864"
    INDEX 01 00:18:37
  TRACK 14 AUDIO
    TITLE "0:"
    INDEX 01 00:19:54
  TRACK 15 AUDIO
    TITLE "4:cjc004_2865"
    INDEX 01 00:20:02
  TRACK 16 AUDIO
    TITLE "0:"
    INDEX 01 00:21:21
  TRACK 17 AUDIO
    TITLE "5:cjc004_2866"
    INDEX 01 00:21:43
  TRACK 18 AUDIO
    TITLE "0:"
    INDEX 01 00:25:54
  TRACK 19 AUDIO
    TITLE "3:cjc004_2867"
    INDEX 01 00:26:32
  TRACK 20 AUDIO
    TITLE "0:"
    INDEX 01 00:27:34
  TRACK 21 AUDIO
    TITLE "4:cjc004_2868"
    INDEX 01 00:27:59
  TRACK 22 AUDIO
    TITLE "0:"
    INDEX 01 00:28:60
  TRACK 23 AUDIO
    TITLE "5:cjc004_2869"
    INDEX 01 00:29:09
  TRACK 24 AUDIO
    TITLE "0:"
    INDEX 01 00:32:52
  TRACK 25 AUDIO
    TITLE "3:cjc004_2870"
    INDEX 01 00:33:26
  TRACK 26 AUDIO
    TITLE "0:"
    INDEX 01 00:34:45
  TRACK 27 AUDIO
    TITLE "4:cjc004_2871"
    INDEX 01 00:34:71
  TRACK 28 AUDIO
    TITLE "0:"
    INDEX 01 00:36:36
  TRACK 29 AUDIO
    TITLE "5:cjc004_2872"
    INDEX 01 00:36:64
  TRACK 30 AUDIO
    TITLE "0:"
    INDEX 01 00:42:51
  TRACK 31 AUDIO
    TITLE "3:cjc004_2873"
    INDEX 01 00:43:29
  TRACK 32 AUDIO
    TITLE "0:"
    INDEX 01 00:44:30
  TRACK 33 AUDIO
    TITLE "4:cjc004_2874"
    INDEX 01 00:44:60
  TRACK 34 AUDIO
    TITLE "0:"
    INDEX 01 00:46:07
  TRACK 35 AUDIO
    TITLE "5:cjc004_2875"
    INDEX 01 00:46:29
  TRACK 36 AUDIO
    TITLE "0:"
    INDEX 01 00:50:21
  TRACK 37 AUDIO
    TITLE "3:cjc004_2876"
    INDEX 01 00:51:01
  TRACK 38 AUDIO
    TITLE "0:"
    INDEX 01 00:52:39
  TRACK 39 AUDIO
    TITLE "4:cjc004_2877"
    INDEX 01 00:52:63
  TRACK 40 AUDIO
    TITLE "0:"
    INDEX 01 00:54:34
  TRACK 41 AUDIO
    TITLE "5:cjc004_2878"
    INDEX 01 00:54:56
  TRACK 42 AUDIO
    TITLE "0:"
    INDEX 01 00:58:69
  TRACK 43 AUDIO
    TITLE "3:cjc004_2879"
    INDEX 01 00:59:43
  TRACK 44 AUDIO
    TITLE "0:"
    INDEX 01 01:00:60
  TRACK 45 AUDIO
    TITLE "4:cjc004_2880"
    INDEX 01 01:01:11
  TRACK 46 AUDIO
    TITLE "0:"
    INDEX 01 01:02:48
  TRACK 47 AUDIO
    TITLE "5:cjc004_2881"
    INDEX 01 01:02:69
  TRACK 48 AUDIO
    TITLE "0:"
    INDEX 01 01:07:45
  TRACK 49 AUDIO
    TITLE "3:cjc004_2882"
    INDEX 01 01:08:21
  TRACK 50 AUDIO
    TITLE "0:"
    INDEX 01 01:09:24
  TRACK 51 AUDIO
    TITLE "4:cjc004_2883"
    INDEX 01 01:09:59
  TRACK 52 AUDIO
    TITLE "0:"
    INDEX 01 01:11:02
  TRACK 53 AUDIO
    TITLE "5:cjc004_2884"
    INDEX 01 01:11:29
  TRACK 54 AUDIO
    TITLE "0:"
    INDEX 01 01:15:66
  TRACK 55 AUDIO
    TITLE "3:cjc004_2885"
    INDEX 01 01:16:36
  TRACK 56 AUDIO
    TITLE "0:"
    INDEX 01 01:17:57
  TRACK 57 AUDIO
    TITLE "4:cjc004_2886"
    INDEX 01 01:18:15
  TRACK 58 AUDIO
    TITLE "0:"
    INDEX 01 01:19:28
  TRACK 59 AUDIO
    TITLE "5:cjc004_2887"
    INDEX 01 01:19:52
  TRACK 60 AUDIO
    TITLE "0:"
    INDEX 01 01:24:10
